<svg width="375" height="176" viewBox="0 0 375 176" fill="none" xmlns="http://www.w3.org/2000/svg">
<path opacity="0.1" fill-rule="evenodd" clip-rule="evenodd" d="M0 7.91648L7.85397 27.5514C11.0089 35.4388 22.4427 34.5762 24.3786 26.3047L24.6915 24.9678C26.5176 17.1653 37.2755 16.2896 40.3394 23.6941C42.3028 28.4388 48.0786 30.2545 52.4035 27.4865L57.2021 24.4154C64.675 19.6327 74.638 23.5657 76.8289 32.1633L77.3955 34.3866C80.8499 47.9422 99.5125 49.4327 105.075 36.5971L107.518 30.9577C111.127 22.6289 120.708 18.6831 129.136 22.0543L136.696 25.0783C140.992 26.7967 145.906 25.3796 148.627 21.6378C153.428 15.0359 163.671 16.5527 166.352 24.2629L170.643 36.5975C173.121 43.7224 182.197 45.8029 187.531 40.4688C190.27 37.73 194.321 36.7737 197.995 37.9985L222.662 46.2208C232.611 49.5369 243.483 45.0332 248.173 35.6538L254.259 23.4813C257.978 16.0445 268.017 14.6852 273.579 20.8654C277.319 25.0209 283.462 25.9805 288.291 23.1635L290.341 21.9676C297.72 17.6631 307.202 20.5269 310.964 28.1966L312.362 31.0458C319.124 44.8307 339.135 43.7812 344.757 29.4931C349.251 18.0702 363.725 14.3361 373.045 22.3247L375 24V176H0V7.91648Z" fill="url(#paint0_linear_202_11919)"/>
<path d="M0 7.91648L7.85397 27.5514C11.0089 35.4388 22.4427 34.5762 24.3786 26.3047L24.6915 24.9678C26.5176 17.1653 37.2755 16.2896 40.3394 23.6941V23.6941C42.3028 28.4388 48.0786 30.2545 52.4035 27.4865L57.2021 24.4154C64.675 19.6327 74.638 23.5657 76.8289 32.1633L77.3955 34.3866C80.8499 47.9422 99.5125 49.4327 105.075 36.5971L107.518 30.9577C111.127 22.6289 120.708 18.6831 129.136 22.0543L136.696 25.0783C140.992 26.7967 145.906 25.3796 148.627 21.6378V21.6378C153.428 15.0359 163.671 16.5527 166.352 24.2629L170.643 36.5975C173.121 43.7224 182.197 45.8029 187.531 40.4688V40.4688C190.27 37.73 194.321 36.7737 197.995 37.9985L222.662 46.2208C232.611 49.5369 243.483 45.0332 248.173 35.6538L254.259 23.4813C257.978 16.0445 268.017 14.6852 273.579 20.8654V20.8654C277.319 25.0209 283.462 25.9805 288.291 23.1635L290.341 21.9676C297.72 17.6631 307.202 20.5269 310.964 28.1966L312.362 31.0458C319.124 44.8307 339.135 43.7812 344.757 29.4931V29.4931C349.251 18.0702 363.725 14.3361 373.045 22.3247L375 24" stroke="#FF6079" stroke-width="4" stroke-linecap="round"/>
<defs>
<linearGradient id="paint0_linear_202_11919" x1="0" y1="0" x2="0" y2="176" gradientUnits="userSpaceOnUse">
<stop stop-color="#FF6079"/>
<stop offset="1" stop-color="white"/>
</linearGradient>
</defs>
</svg>
