<svg width="16" height="16" viewBox="0 0 16 16" fill="none" xmlns="http://www.w3.org/2000/svg">
<path fill-rule="evenodd" clip-rule="evenodd" d="M8.99331 1.21663C8.93555 0.719292 8.51288 0.333252 8.00004 0.333252C7.44776 0.333252 7.00004 0.780967 7.00004 1.33325V6.99992H1.33337L1.21675 7.00665C0.719414 7.06441 0.333374 7.48708 0.333374 7.99992C0.333374 8.5522 0.781089 8.99992 1.33337 8.99992H7.00004V14.6666L7.00677 14.7832C7.06453 15.2805 7.4872 15.6666 8.00004 15.6666C8.55233 15.6666 9.00004 15.2189 9.00004 14.6666V8.99992H14.6667L14.7833 8.99319C15.2807 8.93543 15.6667 8.51275 15.6667 7.99992C15.6667 7.44763 15.219 6.99992 14.6667 6.99992H9.00004V1.33325L8.99331 1.21663Z" fill="white"/>
</svg>
