<svg width="36" height="36" viewBox="0 0 36 36" fill="none" xmlns="http://www.w3.org/2000/svg">
<g opacity="0.6">
<path d="M26.7144 11.4451L24.6294 10.2451L20.3244 7.75515C19.0044 6.99015 16.9944 6.99015 15.6744 7.75515L11.3694 10.2451L9.28441 11.4601L9.01441 11.6101C6.32941 13.4101 6.14941 13.7401 6.14941 16.6351V23.5501C6.14941 26.4451 6.32941 26.7751 9.07441 28.6201L15.6744 32.4301C16.3344 32.8201 17.1594 33.0001 17.9994 33.0001C18.8244 33.0001 19.6644 32.8201 20.3244 32.4301L26.9844 28.5751C29.6694 26.7751 29.8494 26.4451 29.8494 23.5501V16.6351C29.8494 13.7401 29.6694 13.4101 26.9244 11.5651L26.7144 11.4451Z" fill="url(#paint0_linear_202_11161)"/>
</g>
<path d="M11.3692 10.245L15.4792 7.875L15.6742 7.755C16.9942 6.99 19.0042 6.99 20.3242 7.755L20.5192 7.875L24.6292 10.245L26.7142 11.445V8.235C26.7142 4.86 24.8542 3 21.4792 3H14.5042C11.1292 3 9.28418 4.86 9.28418 8.235V11.46L11.3692 10.245Z" fill="url(#paint1_linear_202_11161)"/>
<path d="M21.3296 21.15C21.1796 21.315 21.0746 21.645 21.0896 21.87L21.1796 23.34C21.2396 24.24 20.5946 24.705 19.7546 24.375L18.3896 23.835C18.1796 23.76 17.8196 23.76 17.6096 23.835L16.2446 24.375C15.4046 24.705 14.7596 24.24 14.8196 23.34L14.9096 21.87C14.9246 21.645 14.8196 21.315 14.6696 21.15L13.7396 20.01C13.1546 19.32 13.4096 18.555 14.2796 18.33L15.7046 17.97C15.9296 17.91 16.1996 17.7 16.3196 17.505L17.1146 16.275C17.6096 15.51 18.3896 15.51 18.8846 16.275L19.6796 17.505C19.7996 17.7 20.0696 17.91 20.2946 17.97L21.7196 18.33C22.5896 18.555 22.8446 19.32 22.2596 20.01L21.3296 21.15Z" fill="url(#paint2_linear_202_11161)"/>
<defs>
<linearGradient id="paint0_linear_202_11161" x1="-5.62322" y1="20.0065" x2="19.9332" y2="43.4657" gradientUnits="userSpaceOnUse">
<stop stop-color="white"/>
<stop offset="0.976463" stop-color="white" stop-opacity="0.8"/>
</linearGradient>
<linearGradient id="paint1_linear_202_11161" x1="0.626077" y1="7.20238" x2="7.22931" y2="20.8069" gradientUnits="userSpaceOnUse">
<stop stop-color="white"/>
<stop offset="0.976463" stop-color="white" stop-opacity="0.8"/>
</linearGradient>
<linearGradient id="paint2_linear_202_11161" x1="8.87791" y1="20.0626" x2="17.5931" y2="29.1466" gradientUnits="userSpaceOnUse">
<stop stop-color="white"/>
<stop offset="0.976463" stop-color="white" stop-opacity="0.8"/>
</linearGradient>
</defs>
</svg>
