<svg width="24" height="24" viewBox="0 0 24 24" fill="none" xmlns="http://www.w3.org/2000/svg">
<path fill-rule="evenodd" clip-rule="evenodd" d="M7 9.99999C7 9.44771 7.40093 9 7.89552 9H16.1045C16.5991 9 17 9.44771 17 9.99999C17 10.5523 16.5991 11 16.1045 11H7.89552C7.40093 11 7 10.5523 7 9.99999ZM7 13C7 12.4476 7.34293 12 7.76596 12H12.234C12.6571 12 13 12.4476 13 13C13 13.5522 12.6571 14 12.234 14H7.76596C7.34293 14 7 13.5522 7 13ZM9.33324 2.29582L9.09704 2.34919C5.75262 3.10478 3.12659 5.67512 2.32033 8.98571C1.89163 10.746 1.89364 12.6004 2.32391 14.3671C3.10311 17.5666 5.3446 20.2348 8.35513 21.5604L8.78398 21.739L8.96638 21.807C10.6147 22.372 12.4284 21.6673 13.1777 20.1155L13.232 19.993L14.2999 19.9937C17.8005 19.9937 20.8737 17.5425 21.7044 14.1316C22.0985 12.5132 22.0985 10.825 21.7044 9.20655L21.6103 8.82022C20.8287 5.61106 18.2831 3.11944 15.0413 2.38699L14.6376 2.29581C12.8919 1.9014 11.079 1.9014 9.33324 2.29582ZM14.1969 4.24665L14.6005 4.33783C17.1035 4.90332 19.0656 6.82391 19.6671 9.29352L19.7612 9.67987C20.0796 10.9873 20.0796 12.3509 19.7612 13.6583C19.1473 16.179 16.8721 17.9937 14.2999 17.9937H13.1761C12.4547 17.9937 11.7978 18.401 11.4733 19.0347L11.4089 19.1739C11.1203 19.8703 10.2924 20.191 9.53227 19.8843L9.40699 19.8337C6.84194 18.7987 4.9199 16.5743 4.26711 13.8939C3.91239 12.4373 3.91073 10.9076 4.26353 9.45896C4.88967 6.88799 6.9323 4.88867 9.53781 4.30001L9.77402 4.24664C11.2296 3.91779 12.7413 3.91779 14.1969 4.24665Z" fill="#040415" fill-opacity="0.4"/>
</svg>
