<svg width="20" height="16" viewBox="0 0 20 16" fill="none" xmlns="http://www.w3.org/2000/svg">
<path fill-rule="evenodd" clip-rule="evenodd" d="M5.12023 0.88263C3.22989 -1.00577 0 0.33306 0 3.00504V12.995C0 15.667 3.2299 17.0058 5.12023 15.1174L9 11.2416V12.995C9 15.667 12.2299 17.0058 14.1202 15.1174L19.1204 10.1224C20.2934 8.9506 20.2934 7.0494 19.1203 5.87761L14.1202 0.88263C12.2299 -1.00577 9 0.33306 9 3.00504V4.75845L5.12023 0.88263ZM11 8.02893C11.0002 8.00968 11.0002 7.99042 11 7.97117V3.00504C11 2.11438 12.0766 1.6681 12.7067 2.29757L17.7069 7.2926C18.0979 7.6832 18.0979 8.3169 17.7069 8.7075L12.7067 13.7025C12.0766 14.332 11 13.8857 11 12.995V8.02893ZM9 7.98265C8.99567 7.73241 8.89797 7.48348 8.7069 7.2926L3.70674 2.29757C3.07663 1.6681 2 2.11438 2 3.00504V12.995C2 13.8857 3.07663 14.332 3.70674 13.7025L8.7069 8.7075C8.89797 8.51662 8.99567 8.26769 9 8.01745V7.98265Z" fill="#040415"/>
</svg>
