<svg width="327" height="240" viewBox="0 0 327 240" fill="none" xmlns="http://www.w3.org/2000/svg">
<path d="M16.8204 225.328L15.5884 225.762C15.5231 225.333 15.3131 224.945 14.9584 224.6C14.6038 224.245 14.1138 224.068 13.4884 224.068C12.9378 224.068 12.4804 224.227 12.1164 224.544C11.7524 224.861 11.5704 225.253 11.5704 225.72C11.5704 226.084 11.6778 226.392 11.8924 226.644C12.1164 226.896 12.4338 227.069 12.8444 227.162L14.3284 227.484C15.1498 227.661 15.7844 227.997 16.2324 228.492C16.6804 228.977 16.9044 229.57 16.9044 230.27C16.9044 231.073 16.5871 231.763 15.9524 232.342C15.3178 232.921 14.4918 233.21 13.4744 233.21C12.3638 233.21 11.4911 232.921 10.8564 232.342C10.2311 231.754 9.86709 231.059 9.76442 230.256L11.0804 229.836C11.1364 230.433 11.3698 230.937 11.7804 231.348C12.1911 231.759 12.7511 231.964 13.4604 231.964C14.1138 231.964 14.6178 231.815 14.9724 231.516C15.3271 231.217 15.5044 230.839 15.5044 230.382C15.5044 230.009 15.3784 229.687 15.1264 229.416C14.8744 229.136 14.5058 228.945 14.0204 228.842L12.6064 228.534C11.8691 228.375 11.2811 228.063 10.8424 227.596C10.4038 227.129 10.1844 226.537 10.1844 225.818C10.1844 225.034 10.5018 224.348 11.1364 223.76C11.7804 223.163 12.5551 222.864 13.4604 222.864C14.4778 222.864 15.2571 223.111 15.7984 223.606C16.3398 224.101 16.6804 224.675 16.8204 225.328ZM18.1629 231.194C18.1629 230.615 18.3496 230.153 18.7229 229.808C19.0962 229.453 19.5909 229.234 20.2069 229.15L22.0269 228.884C22.3722 228.837 22.5449 228.669 22.5449 228.38C22.5449 228.025 22.4236 227.736 22.1809 227.512C21.9382 227.288 21.5742 227.176 21.0889 227.176C20.6409 227.176 20.2862 227.302 20.0249 227.554C19.7636 227.797 19.6096 228.123 19.5629 228.534L18.3029 228.24C18.3682 227.596 18.6622 227.073 19.1849 226.672C19.7076 226.261 20.3329 226.056 21.0609 226.056C22.0129 226.056 22.7176 226.289 23.1749 226.756C23.6322 227.213 23.8609 227.801 23.8609 228.52V231.894C23.8609 232.295 23.8889 232.664 23.9449 233H22.6569C22.6102 232.72 22.5869 232.417 22.5869 232.09C22.4002 232.389 22.1249 232.65 21.7609 232.874C21.4062 233.098 20.9582 233.21 20.4169 233.21C19.7542 233.21 19.2129 233.014 18.7929 232.622C18.3729 232.221 18.1629 231.745 18.1629 231.194ZM20.5989 232.104C21.1869 232.104 21.6582 231.945 22.0129 231.628C22.3676 231.311 22.5449 230.807 22.5449 230.116V229.808L20.4869 230.116C20.1882 230.163 19.9502 230.27 19.7729 230.438C19.5956 230.606 19.5069 230.835 19.5069 231.124C19.5069 231.385 19.6049 231.614 19.8009 231.81C20.0062 232.006 20.2722 232.104 20.5989 232.104ZM27.675 224.138V226.266H29.131V227.456H27.675V230.956C27.675 231.273 27.745 231.507 27.885 231.656C28.0343 231.805 28.277 231.88 28.613 231.88C28.809 231.88 28.9817 231.861 29.131 231.824V232.944C28.907 233.028 28.6083 233.07 28.235 233.07C27.6563 233.07 27.199 232.902 26.863 232.566C26.527 232.23 26.359 231.759 26.359 231.152V227.456H25.071V226.266H25.435C25.7803 226.266 26.037 226.173 26.205 225.986C26.3823 225.79 26.471 225.538 26.471 225.23V224.138H27.675Z" fill="#FF6079"/>
<path d="M63.2208 225.328L61.9888 225.762C61.9235 225.333 61.7135 224.945 61.3588 224.6C61.0041 224.245 60.5141 224.068 59.8888 224.068C59.3381 224.068 58.8808 224.227 58.5168 224.544C58.1528 224.861 57.9708 225.253 57.9708 225.72C57.9708 226.084 58.0781 226.392 58.2928 226.644C58.5168 226.896 58.8341 227.069 59.2448 227.162L60.7288 227.484C61.5501 227.661 62.1848 227.997 62.6328 228.492C63.0808 228.977 63.3048 229.57 63.3048 230.27C63.3048 231.073 62.9875 231.763 62.3528 232.342C61.7181 232.921 60.8921 233.21 59.8748 233.21C58.7641 233.21 57.8915 232.921 57.2568 232.342C56.6315 231.754 56.2675 231.059 56.1648 230.256L57.4808 229.836C57.5368 230.433 57.7701 230.937 58.1808 231.348C58.5915 231.759 59.1515 231.964 59.8608 231.964C60.5141 231.964 61.0181 231.815 61.3728 231.516C61.7275 231.217 61.9048 230.839 61.9048 230.382C61.9048 230.009 61.7788 229.687 61.5268 229.416C61.2748 229.136 60.9061 228.945 60.4208 228.842L59.0068 228.534C58.2695 228.375 57.6815 228.063 57.2428 227.596C56.8041 227.129 56.5848 226.537 56.5848 225.818C56.5848 225.034 56.9021 224.348 57.5368 223.76C58.1808 223.163 58.9555 222.864 59.8608 222.864C60.8781 222.864 61.6575 223.111 62.1988 223.606C62.7401 224.101 63.0808 224.675 63.2208 225.328ZM69.1342 232.188C68.9568 232.524 68.6862 232.781 68.3222 232.958C67.9582 233.126 67.5662 233.21 67.1462 233.21C66.3808 233.21 65.7695 232.958 65.3122 232.454C64.8548 231.941 64.6262 231.292 64.6262 230.508V226.266H65.9422V230.312C65.9422 230.816 66.0635 231.231 66.3062 231.558C66.5582 231.885 66.9455 232.048 67.4682 232.048C67.9908 232.048 68.3875 231.894 68.6582 231.586C68.9288 231.269 69.0642 230.849 69.0642 230.326V226.266H70.3802V231.754C70.3802 232.193 70.4035 232.608 70.4502 233H69.1902C69.1528 232.795 69.1342 232.524 69.1342 232.188ZM73.9419 229.108V233H72.6259V226.266H73.9139V227.232C74.3619 226.457 75.0525 226.07 75.9859 226.07C76.7605 226.07 77.3532 226.317 77.7639 226.812C78.1839 227.307 78.3939 227.946 78.3939 228.73V233H77.0779V228.954C77.0779 227.825 76.5552 227.26 75.5099 227.26C75.0152 227.26 74.6279 227.437 74.3479 227.792C74.0772 228.137 73.9419 228.576 73.9419 229.108Z" fill="#FF6079"/>
<path d="M112.923 233H111.565V225.272L108.177 233H106.917L103.557 225.272V233H102.199V223.074H104.061L107.561 231.152L111.089 223.074H112.923V233ZM116.694 231.404C117.104 231.824 117.604 232.034 118.192 232.034C118.78 232.034 119.274 231.824 119.676 231.404C120.086 230.975 120.292 230.382 120.292 229.626C120.292 228.879 120.086 228.296 119.676 227.876C119.274 227.447 118.78 227.232 118.192 227.232C117.604 227.232 117.104 227.447 116.694 227.876C116.292 228.296 116.092 228.879 116.092 229.626C116.092 230.382 116.292 230.975 116.694 231.404ZM115.714 227.078C116.367 226.397 117.193 226.056 118.192 226.056C119.19 226.056 120.012 226.397 120.656 227.078C121.309 227.75 121.636 228.599 121.636 229.626C121.636 230.662 121.314 231.521 120.67 232.202C120.026 232.874 119.2 233.21 118.192 233.21C117.184 233.21 116.358 232.874 115.714 232.202C115.07 231.521 114.748 230.662 114.748 229.626C114.748 228.599 115.07 227.75 115.714 227.078ZM124.635 229.108V233H123.319V226.266H124.607V227.232C125.055 226.457 125.746 226.07 126.679 226.07C127.454 226.07 128.047 226.317 128.457 226.812C128.877 227.307 129.087 227.946 129.087 228.73V233H127.771V228.954C127.771 227.825 127.249 227.26 126.203 227.26C125.709 227.26 125.321 227.437 125.041 227.792C124.771 228.137 124.635 228.576 124.635 229.108Z" fill="#FF6079"/>
<path d="M160.444 224.348H157.126V233H155.754V224.348H152.436V223.074H160.444V224.348ZM164.813 232.188C164.636 232.524 164.365 232.781 164.001 232.958C163.637 233.126 163.245 233.21 162.825 233.21C162.06 233.21 161.448 232.958 160.991 232.454C160.534 231.941 160.305 231.292 160.305 230.508V226.266H161.621V230.312C161.621 230.816 161.742 231.231 161.985 231.558C162.237 231.885 162.624 232.048 163.147 232.048C163.67 232.048 164.066 231.894 164.337 231.586C164.608 231.269 164.743 230.849 164.743 230.326V226.266H166.059V231.754C166.059 232.193 166.082 232.608 166.129 233H164.869C164.832 232.795 164.813 232.524 164.813 232.188ZM169.09 228.94H172.772C172.754 228.436 172.586 228.025 172.268 227.708C171.951 227.381 171.503 227.218 170.924 227.218C170.402 227.218 169.972 227.391 169.636 227.736C169.3 228.072 169.118 228.473 169.09 228.94ZM172.968 230.69L174.102 231.082C173.906 231.707 173.542 232.221 173.01 232.622C172.478 233.014 171.834 233.21 171.078 233.21C170.136 233.21 169.333 232.888 168.67 232.244C168.017 231.591 167.69 230.713 167.69 229.612C167.69 228.585 168.008 227.736 168.642 227.064C169.277 226.392 170.033 226.056 170.91 226.056C171.928 226.056 172.721 226.378 173.29 227.022C173.86 227.657 174.144 228.511 174.144 229.584C174.144 229.752 174.135 229.892 174.116 230.004H169.048C169.058 230.601 169.254 231.091 169.636 231.474C170.028 231.857 170.509 232.048 171.078 232.048C172.04 232.048 172.67 231.595 172.968 230.69Z" fill="#040415"/>
<path d="M207.1 230.928L209.242 223.074H210.656L207.828 233H206.414L203.824 224.95L201.262 233H199.89L197.02 223.074H198.434L200.618 230.844L203.11 223.074H204.552L207.1 230.928ZM212.346 228.94H216.028C216.009 228.436 215.841 228.025 215.524 227.708C215.207 227.381 214.759 227.218 214.18 227.218C213.657 227.218 213.228 227.391 212.892 227.736C212.556 228.072 212.374 228.473 212.346 228.94ZM216.224 230.69L217.358 231.082C217.162 231.707 216.798 232.221 216.266 232.622C215.734 233.014 215.09 233.21 214.334 233.21C213.391 233.21 212.589 232.888 211.926 232.244C211.273 231.591 210.946 230.713 210.946 229.612C210.946 228.585 211.263 227.736 211.898 227.064C212.533 226.392 213.289 226.056 214.166 226.056C215.183 226.056 215.977 226.378 216.546 227.022C217.115 227.657 217.4 228.511 217.4 229.584C217.4 229.752 217.391 229.892 217.372 230.004H212.304C212.313 230.601 212.509 231.091 212.892 231.474C213.284 231.857 213.765 232.048 214.334 232.048C215.295 232.048 215.925 231.595 216.224 230.69ZM219.864 229.612C219.864 230.321 220.037 230.9 220.382 231.348C220.737 231.796 221.222 232.02 221.838 232.02C222.426 232.02 222.897 231.791 223.252 231.334C223.607 230.877 223.784 230.293 223.784 229.584C223.784 228.884 223.611 228.319 223.266 227.89C222.921 227.461 222.449 227.246 221.852 227.246C221.255 227.246 220.774 227.465 220.41 227.904C220.046 228.343 219.864 228.912 219.864 229.612ZM223.798 232.09V231.978C223.621 232.323 223.35 232.613 222.986 232.846C222.631 233.07 222.207 233.182 221.712 233.182C220.751 233.182 219.976 232.846 219.388 232.174C218.809 231.493 218.52 230.639 218.52 229.612C218.52 228.632 218.819 227.801 219.416 227.12C220.013 226.429 220.779 226.084 221.712 226.084C222.263 226.084 222.711 226.196 223.056 226.42C223.401 226.635 223.639 226.901 223.77 227.218V222.864H225.072V231.754C225.072 232.211 225.095 232.627 225.142 233H223.868C223.821 232.739 223.798 232.435 223.798 232.09Z" fill="#FF6079"/>
<path d="M257.004 224.348H253.686V233H252.314V224.348H248.996V223.074H257.004V224.348ZM259.578 229.038V233H258.262V222.864H259.578V227.05C260.026 226.397 260.707 226.07 261.622 226.07C262.396 226.07 262.989 226.317 263.4 226.812C263.82 227.307 264.03 227.946 264.03 228.73V233H262.714V228.954C262.714 227.825 262.191 227.26 261.146 227.26C260.66 227.26 260.282 227.428 260.012 227.764C259.741 228.091 259.596 228.515 259.578 229.038ZM269.861 226.196V227.596C269.665 227.568 269.474 227.554 269.287 227.554C268.055 227.554 267.439 228.245 267.439 229.626V233H266.123V226.266H267.411V227.442C267.822 226.583 268.494 226.154 269.427 226.154C269.576 226.154 269.721 226.168 269.861 226.196Z" fill="#FF6079"/>
<path d="M302.113 233H300.741V223.074H306.775V224.348H302.113V227.54H306.341V228.828H302.113V233ZM311.695 226.196V227.596C311.499 227.568 311.308 227.554 311.121 227.554C309.889 227.554 309.273 228.245 309.273 229.626V233H307.957V226.266H309.245V227.442C309.656 226.583 310.328 226.154 311.261 226.154C311.41 226.154 311.555 226.168 311.695 226.196ZM314.4 233H313.098V226.266H314.4V233ZM313.07 224.39C312.892 224.203 312.804 223.979 312.804 223.718C312.804 223.457 312.892 223.233 313.07 223.046C313.256 222.859 313.48 222.766 313.742 222.766C314.003 222.766 314.227 222.859 314.414 223.046C314.6 223.223 314.694 223.447 314.694 223.718C314.694 223.979 314.6 224.203 314.414 224.39C314.227 224.567 314.003 224.656 313.742 224.656C313.48 224.656 313.256 224.567 313.07 224.39Z" fill="#FF6079"/>
<rect x="240" y="108" width="11" height="2" rx="1" fill="#FF6079"/>
<rect x="253" y="108" width="26" height="2" rx="1" fill="#FF6079"/>
<rect x="96" y="150" width="15" height="2" rx="1" fill="#FF6079"/>
<rect x="113" y="150" width="22" height="2" rx="1" fill="#FF6079"/>
<circle cx="163.5" cy="54.5" r="19.5" fill="#FF6079"/>
<path d="M20.9242 17H19.5802V10.602H17.3822V9.636C17.9982 9.62667 18.5162 9.468 18.9362 9.16C19.3562 8.84267 19.6176 8.432 19.7202 7.928H20.9242V17Z" fill="#040415"/>
<path d="M65.7689 11.19L64.3969 11.022C64.3876 10.938 64.3829 10.8167 64.3829 10.658C64.3829 9.846 64.6676 9.15533 65.2369 8.586C65.8063 8.00733 66.5669 7.718 67.5189 7.718C68.4616 7.718 69.2083 7.98867 69.7589 8.53C70.3096 9.062 70.5849 9.72 70.5849 10.504C70.5849 11.652 70.0156 12.5853 68.8769 13.304L67.0849 14.452C66.4409 14.8627 66.0723 15.2873 65.9789 15.726H70.6409V17H64.2849C64.3036 16.2347 64.4763 15.5627 64.8029 14.984C65.1389 14.4053 65.6849 13.8733 66.4409 13.388L67.9529 12.408C68.7836 11.876 69.1989 11.246 69.1989 10.518C69.1989 10.07 69.0496 9.692 68.7509 9.384C68.4523 9.076 68.0323 8.922 67.4909 8.922C66.9216 8.922 66.4876 9.09467 66.1889 9.44C65.8903 9.78533 65.7409 10.2333 65.7409 10.784C65.7409 10.868 65.7503 11.0033 65.7689 11.19Z" fill="#040415"/>
<path d="M114.781 12.786L114.109 11.652L116.783 9.188H112.443V7.928H118.603V9.16L116.013 11.554C116.75 11.554 117.399 11.7967 117.959 12.282C118.528 12.7673 118.813 13.444 118.813 14.312C118.813 15.1147 118.519 15.8007 117.931 16.37C117.343 16.9393 116.54 17.224 115.523 17.224C114.524 17.224 113.722 16.9487 113.115 16.398C112.518 15.838 112.196 15.1613 112.149 14.368L113.493 14.06C113.521 14.648 113.722 15.124 114.095 15.488C114.478 15.8427 114.949 16.02 115.509 16.02C116.106 16.02 116.573 15.8613 116.909 15.544C117.254 15.2173 117.427 14.816 117.427 14.34C117.427 13.7893 117.245 13.3693 116.881 13.08C116.517 12.7907 116.083 12.646 115.579 12.646C115.308 12.646 115.042 12.6927 114.781 12.786Z" fill="#040415"/>
<path d="M159.97 14.956V13.374L163.862 7.928H165.752V13.682H167.306V14.956H165.752V17H164.422V14.956H159.97ZM164.422 13.682V9.244L161.23 13.682H164.422Z" fill="#040415"/>
<path d="M208.155 14.536L209.471 14.144C209.508 14.704 209.714 15.1567 210.087 15.502C210.47 15.8473 210.946 16.02 211.515 16.02C212.066 16.02 212.528 15.852 212.901 15.516C213.274 15.18 213.461 14.7367 213.461 14.186C213.461 13.5887 213.274 13.1267 212.901 12.8C212.528 12.4733 212.061 12.31 211.501 12.31C210.82 12.31 210.269 12.5293 209.849 12.968C209.718 12.9213 209.504 12.8373 209.205 12.716C208.906 12.5947 208.673 12.5013 208.505 12.436L209.681 7.928H214.469V9.188H210.591L209.919 11.792C210.32 11.344 210.936 11.12 211.767 11.12C212.672 11.12 213.41 11.3907 213.979 11.932C214.558 12.4733 214.847 13.206 214.847 14.13C214.847 15.0073 214.539 15.7447 213.923 16.342C213.307 16.93 212.504 17.224 211.515 17.224C210.582 17.224 209.802 16.9627 209.177 16.44C208.561 15.9173 208.22 15.2827 208.155 14.536Z" fill="#040415"/>
<path d="M262.789 8.222L262.369 9.342C261.921 9.08067 261.38 8.95 260.745 8.95C259.821 8.95 259.07 9.25333 258.491 9.86C257.922 10.4667 257.609 11.246 257.553 12.198C257.759 11.862 258.067 11.582 258.477 11.358C258.897 11.134 259.387 11.022 259.947 11.022C260.871 11.022 261.618 11.2973 262.187 11.848C262.766 12.3987 263.055 13.1547 263.055 14.116C263.055 15.0587 262.729 15.81 262.075 16.37C261.422 16.93 260.629 17.21 259.695 17.21C258.725 17.21 257.889 16.86 257.189 16.16C256.499 15.4507 256.153 14.4007 256.153 13.01C256.153 11.3673 256.592 10.0747 257.469 9.132C258.347 8.18933 259.467 7.718 260.829 7.718C261.66 7.718 262.313 7.886 262.789 8.222ZM257.749 14.116C257.749 14.6853 257.945 15.1473 258.337 15.502C258.729 15.8473 259.187 16.02 259.709 16.02C260.26 16.02 260.722 15.8473 261.095 15.502C261.478 15.1567 261.669 14.6947 261.669 14.116C261.669 13.528 261.478 13.0613 261.095 12.716C260.722 12.3707 260.26 12.198 259.709 12.198C259.159 12.198 258.692 12.3707 258.309 12.716C257.936 13.0613 257.749 13.528 257.749 14.116Z" fill="#040415"/>
<path d="M310.808 7.928V9.244C310.575 9.43067 310.346 9.63133 310.122 9.846C309.898 10.0607 309.6 10.406 309.226 10.882C308.862 11.358 308.54 11.862 308.26 12.394C307.98 12.926 307.714 13.6027 307.462 14.424C307.22 15.236 307.056 16.0947 306.972 17H305.558C305.614 16.2813 305.726 15.586 305.894 14.914C306.062 14.2327 306.258 13.64 306.482 13.136C306.706 12.632 306.944 12.1607 307.196 11.722C307.458 11.274 307.71 10.9007 307.952 10.602C308.204 10.294 308.428 10.0327 308.624 9.818C308.83 9.60333 308.993 9.44467 309.114 9.342L309.296 9.188H304.186V7.928H310.808Z" fill="#040415"/>
<path d="M19.503 53.792C19.9883 53.7827 20.3897 53.6427 20.707 53.372C21.0243 53.1013 21.183 52.7467 21.183 52.308C21.183 51.8973 21.029 51.552 20.721 51.272C20.413 50.992 20.007 50.852 19.503 50.852C18.999 50.852 18.593 50.992 18.285 51.272C17.977 51.552 17.823 51.8973 17.823 52.308C17.823 52.7467 17.9817 53.1013 18.299 53.372C18.6163 53.6427 19.0177 53.7827 19.503 53.792ZM18.103 57.586C18.4483 57.8753 18.915 58.02 19.503 58.02C20.091 58.02 20.553 57.8753 20.889 57.586C21.2343 57.2967 21.407 56.9327 21.407 56.494C21.407 56.046 21.2343 55.6773 20.889 55.388C20.553 55.0893 20.091 54.94 19.503 54.94C18.915 54.94 18.4483 55.0893 18.103 55.388C17.767 55.6773 17.599 56.046 17.599 56.494C17.599 56.9327 17.767 57.2967 18.103 57.586ZM21.911 58.482C21.323 58.9673 20.5203 59.21 19.503 59.21C18.4857 59.21 17.683 58.9673 17.095 58.482C16.507 57.9873 16.213 57.362 16.213 56.606C16.213 56.074 16.3717 55.612 16.689 55.22C17.0157 54.8187 17.431 54.534 17.935 54.366C17.5057 54.2073 17.151 53.9367 16.871 53.554C16.591 53.162 16.451 52.7233 16.451 52.238C16.451 51.5007 16.7403 50.8987 17.319 50.432C17.8977 49.956 18.6257 49.718 19.503 49.718C20.3803 49.718 21.1083 49.956 21.687 50.432C22.2657 50.8987 22.555 51.5007 22.555 52.238C22.555 52.714 22.415 53.148 22.135 53.54C21.855 53.932 21.5003 54.2073 21.071 54.366C21.575 54.5247 21.9857 54.8047 22.303 55.206C22.6297 55.6073 22.793 56.074 22.793 56.606C22.793 57.362 22.499 57.9873 21.911 58.482Z" fill="#040415"/>
<path d="M64.2306 58.678L64.6786 57.544C65.1546 57.8333 65.7053 57.978 66.3306 57.978C67.3666 57.978 68.1413 57.684 68.6546 57.096C69.1773 56.4987 69.4526 55.7193 69.4806 54.758C69.3033 55.0847 69.0093 55.36 68.5986 55.584C68.1973 55.808 67.7073 55.92 67.1286 55.92C66.2886 55.92 65.556 55.6493 64.9306 55.108C64.3053 54.5573 63.9926 53.806 63.9926 52.854C63.9926 51.9393 64.3193 51.188 64.9726 50.6C65.6353 50.012 66.424 49.718 67.3386 49.718C68.3093 49.718 69.14 50.0727 69.8306 50.782C70.5213 51.4913 70.8666 52.5273 70.8666 53.89C70.8666 55.5887 70.484 56.9 69.7186 57.824C68.9626 58.748 67.8333 59.21 66.3306 59.21C65.976 59.21 65.5933 59.1587 65.1826 59.056C64.772 58.9533 64.4546 58.8273 64.2306 58.678ZM69.2986 52.826C69.2986 52.266 69.1026 51.8087 68.7106 51.454C68.3186 51.0993 67.8613 50.922 67.3386 50.922C66.8066 50.922 66.3446 51.0993 65.9526 51.454C65.57 51.7993 65.3786 52.2567 65.3786 52.826C65.3786 53.414 65.57 53.8807 65.9526 54.226C66.3353 54.5713 66.7973 54.744 67.3386 54.744C67.8706 54.744 68.328 54.5713 68.7106 54.226C69.1026 53.8713 69.2986 53.4047 69.2986 52.826Z" fill="#040415"/>
<path d="M112.59 59H111.246V52.602H109.048V51.636C109.664 51.6267 110.182 51.468 110.602 51.16C111.022 50.8427 111.284 50.432 111.386 49.928H112.59V59ZM116.558 51.524C116.026 52.084 115.76 53.064 115.76 54.464C115.76 55.864 116.026 56.844 116.558 57.404C116.931 57.796 117.412 57.992 118 57.992C118.588 57.992 119.069 57.796 119.442 57.404C119.974 56.844 120.24 55.864 120.24 54.464C120.24 53.064 119.974 52.084 119.442 51.524C119.069 51.132 118.588 50.936 118 50.936C117.412 50.936 116.931 51.132 116.558 51.524ZM115.214 57.754C114.673 56.9513 114.402 55.8547 114.402 54.464C114.402 53.0733 114.673 51.9767 115.214 51.174C115.858 50.2033 116.787 49.718 118 49.718C119.213 49.718 120.142 50.2033 120.786 51.174C121.327 51.9767 121.598 53.0733 121.598 54.464C121.598 55.8547 121.327 56.9513 120.786 57.754C120.142 58.7247 119.213 59.21 118 59.21C116.787 59.21 115.858 58.7247 115.214 57.754Z" fill="#040415"/>
<path d="M162.456 60H161.112V53.602H158.914V52.636C159.53 52.6267 160.048 52.468 160.468 52.16C160.888 51.8427 161.15 51.432 161.252 50.928H162.456V60ZM167.392 60H166.048V53.602H163.85V52.636C164.466 52.6267 164.984 52.468 165.404 52.16C165.824 51.8427 166.085 51.432 166.188 50.928H167.392V60Z" fill="white"/>
<path d="M209.185 59H207.841V52.602H205.643V51.636C206.259 51.6267 206.777 51.468 207.197 51.16C207.617 50.8427 207.878 50.432 207.981 49.928H209.185V59ZM212.271 53.19L210.899 53.022C210.89 52.938 210.885 52.8167 210.885 52.658C210.885 51.846 211.17 51.1553 211.739 50.586C212.308 50.0073 213.069 49.718 214.021 49.718C214.964 49.718 215.71 49.9887 216.261 50.53C216.812 51.062 217.087 51.72 217.087 52.504C217.087 53.652 216.518 54.5853 215.379 55.304L213.587 56.452C212.943 56.8627 212.574 57.2873 212.481 57.726H217.143V59H210.787C210.806 58.2347 210.978 57.5627 211.305 56.984C211.641 56.4053 212.187 55.8733 212.943 55.388L214.455 54.408C215.286 53.876 215.701 53.246 215.701 52.518C215.701 52.07 215.552 51.692 215.253 51.384C214.954 51.076 214.534 50.922 213.993 50.922C213.424 50.922 212.99 51.0947 212.691 51.44C212.392 51.7853 212.243 52.2333 212.243 52.784C212.243 52.868 212.252 53.0033 212.271 53.19Z" fill="#040415"/>
<path d="M257.055 59H255.711V52.602H253.513V51.636C254.129 51.6267 254.647 51.468 255.067 51.16C255.487 50.8427 255.748 50.432 255.851 49.928H257.055V59ZM261.249 54.786L260.577 53.652L263.251 51.188H258.911V49.928H265.071V51.16L262.481 53.554C263.218 53.554 263.867 53.7967 264.427 54.282C264.996 54.7673 265.281 55.444 265.281 56.312C265.281 57.1147 264.987 57.8007 264.399 58.37C263.811 58.9393 263.008 59.224 261.991 59.224C260.992 59.224 260.189 58.9487 259.583 58.398C258.985 57.838 258.663 57.1613 258.617 56.368L259.961 56.06C259.989 56.648 260.189 57.124 260.563 57.488C260.945 57.8427 261.417 58.02 261.977 58.02C262.574 58.02 263.041 57.8613 263.377 57.544C263.722 57.2173 263.895 56.816 263.895 56.34C263.895 55.7893 263.713 55.3693 263.349 55.08C262.985 54.7907 262.551 54.646 262.047 54.646C261.776 54.646 261.51 54.6927 261.249 54.786Z" fill="#040415"/>
<path d="M304.905 59H303.561V52.602H301.363V51.636C301.979 51.6267 302.497 51.468 302.917 51.16C303.337 50.8427 303.598 50.432 303.701 49.928H304.905V59ZM306.438 56.956V55.374L310.33 49.928H312.22V55.682H313.774V56.956H312.22V59H310.89V56.956H306.438ZM310.89 55.682V51.244L307.698 55.682H310.89Z" fill="#040415"/>
<path d="M17.0893 101H15.7453V94.602H13.5473V93.636C14.1633 93.6267 14.6813 93.468 15.1013 93.16C15.5213 92.8427 15.7826 92.432 15.8853 91.928H17.0893V101ZM18.6228 98.536L19.9388 98.144C19.9761 98.704 20.1815 99.1567 20.5548 99.502C20.9375 99.8473 21.4135 100.02 21.9828 100.02C22.5335 100.02 22.9955 99.852 23.3688 99.516C23.7421 99.18 23.9288 98.7367 23.9288 98.186C23.9288 97.5887 23.7421 97.1267 23.3688 96.8C22.9955 96.4733 22.5288 96.31 21.9688 96.31C21.2875 96.31 20.7368 96.5293 20.3168 96.968C20.1861 96.9213 19.9715 96.8373 19.6728 96.716C19.3741 96.5947 19.1408 96.5013 18.9728 96.436L20.1488 91.928H24.9368V93.188H21.0588L20.3868 95.792C20.7881 95.344 21.4041 95.12 22.2348 95.12C23.1401 95.12 23.8775 95.3907 24.4468 95.932C25.0255 96.4733 25.3148 97.206 25.3148 98.13C25.3148 99.0073 25.0068 99.7447 24.3908 100.342C23.7748 100.93 22.9721 101.224 21.9828 101.224C21.0495 101.224 20.2701 100.963 19.6448 100.44C19.0288 99.9173 18.6881 99.2827 18.6228 98.536Z" fill="#040415"/>
<path d="M64.8295 101H63.4855V94.602H61.2875V93.636C61.9035 93.6267 62.4215 93.468 62.8415 93.16C63.2615 92.8427 63.5228 92.432 63.6255 91.928H64.8295V101ZM73.2914 92.222L72.8714 93.342C72.4234 93.0807 71.8821 92.95 71.2474 92.95C70.3234 92.95 69.5721 93.2533 68.9934 93.86C68.4241 94.4667 68.1114 95.246 68.0554 96.198C68.2607 95.862 68.5687 95.582 68.9794 95.358C69.3994 95.134 69.8894 95.022 70.4494 95.022C71.3734 95.022 72.1201 95.2973 72.6894 95.848C73.2681 96.3987 73.5574 97.1547 73.5574 98.116C73.5574 99.0587 73.2307 99.81 72.5774 100.37C71.9241 100.93 71.1307 101.21 70.1974 101.21C69.2267 101.21 68.3914 100.86 67.6914 100.16C67.0007 99.4507 66.6554 98.4007 66.6554 97.01C66.6554 95.3673 67.0941 94.0747 67.9714 93.132C68.8487 92.1893 69.9687 91.718 71.3314 91.718C72.1621 91.718 72.8154 91.886 73.2914 92.222ZM68.2514 98.116C68.2514 98.6853 68.4474 99.1473 68.8394 99.502C69.2314 99.8473 69.6887 100.02 70.2114 100.02C70.7621 100.02 71.2241 99.8473 71.5974 99.502C71.9801 99.1567 72.1714 98.6947 72.1714 98.116C72.1714 97.528 71.9801 97.0613 71.5974 96.716C71.2241 96.3707 70.7621 96.198 70.2114 96.198C69.6607 96.198 69.1941 96.3707 68.8114 96.716C68.4381 97.0613 68.2514 97.528 68.2514 98.116Z" fill="#040415"/>
<path d="M113.506 101H112.162V94.602H109.964V93.636C110.58 93.6267 111.098 93.468 111.518 93.16C111.938 92.8427 112.2 92.432 112.302 91.928H113.506V101ZM121.31 91.928V93.244C121.077 93.4307 120.848 93.6313 120.624 93.846C120.4 94.0607 120.101 94.406 119.728 94.882C119.364 95.358 119.042 95.862 118.762 96.394C118.482 96.926 118.216 97.6027 117.964 98.424C117.721 99.236 117.558 100.095 117.474 101H116.06C116.116 100.281 116.228 99.586 116.396 98.914C116.564 98.2327 116.76 97.64 116.984 97.136C117.208 96.632 117.446 96.1607 117.698 95.722C117.959 95.274 118.211 94.9007 118.454 94.602C118.706 94.294 118.93 94.0327 119.126 93.818C119.331 93.6033 119.495 93.4447 119.616 93.342L119.798 93.188H114.688V91.928H121.31Z" fill="#040415"/>
<path d="M208.857 101H207.513V94.602H205.315V93.636C205.931 93.6267 206.449 93.468 206.869 93.16C207.289 92.8427 207.55 92.432 207.653 91.928H208.857V101ZM210.698 100.678L211.146 99.544C211.622 99.8333 212.173 99.978 212.798 99.978C213.834 99.978 214.609 99.684 215.122 99.096C215.645 98.4987 215.92 97.7193 215.948 96.758C215.771 97.0847 215.477 97.36 215.066 97.584C214.665 97.808 214.175 97.92 213.596 97.92C212.756 97.92 212.024 97.6493 211.398 97.108C210.773 96.5573 210.46 95.806 210.46 94.854C210.46 93.9393 210.787 93.188 211.44 92.6C212.103 92.012 212.892 91.718 213.806 91.718C214.777 91.718 215.608 92.0727 216.298 92.782C216.989 93.4913 217.334 94.5273 217.334 95.89C217.334 97.5887 216.952 98.9 216.186 99.824C215.43 100.748 214.301 101.21 212.798 101.21C212.444 101.21 212.061 101.159 211.65 101.056C211.24 100.953 210.922 100.827 210.698 100.678ZM215.766 94.826C215.766 94.266 215.57 93.8087 215.178 93.454C214.786 93.0993 214.329 92.922 213.806 92.922C213.274 92.922 212.812 93.0993 212.42 93.454C212.038 93.7993 211.846 94.2567 211.846 94.826C211.846 95.414 212.038 95.8807 212.42 96.226C212.803 96.5713 213.265 96.744 213.806 96.744C214.338 96.744 214.796 96.5713 215.178 96.226C215.57 95.8713 215.766 95.4047 215.766 94.826Z" fill="#040415"/>
<path d="M253.469 95.19L252.097 95.022C252.088 94.938 252.083 94.8167 252.083 94.658C252.083 93.846 252.368 93.1553 252.937 92.586C253.506 92.0073 254.267 91.718 255.219 91.718C256.162 91.718 256.908 91.9887 257.459 92.53C258.01 93.062 258.285 93.72 258.285 94.504C258.285 95.652 257.716 96.5853 256.577 97.304L254.785 98.452C254.141 98.8627 253.772 99.2873 253.679 99.726H258.341V101H251.985C252.004 100.235 252.176 99.5627 252.503 98.984C252.839 98.4053 253.385 97.8733 254.141 97.388L255.653 96.408C256.484 95.876 256.899 95.246 256.899 94.518C256.899 94.07 256.75 93.692 256.451 93.384C256.152 93.076 255.732 92.922 255.191 92.922C254.622 92.922 254.188 93.0947 253.889 93.44C253.59 93.7853 253.441 94.2333 253.441 94.784C253.441 94.868 253.45 95.0033 253.469 95.19ZM261.761 93.524C261.229 94.084 260.963 95.064 260.963 96.464C260.963 97.864 261.229 98.844 261.761 99.404C262.135 99.796 262.615 99.992 263.203 99.992C263.791 99.992 264.272 99.796 264.645 99.404C265.177 98.844 265.443 97.864 265.443 96.464C265.443 95.064 265.177 94.084 264.645 93.524C264.272 93.132 263.791 92.936 263.203 92.936C262.615 92.936 262.135 93.132 261.761 93.524ZM260.417 99.754C259.876 98.9513 259.605 97.8547 259.605 96.464C259.605 95.0733 259.876 93.9767 260.417 93.174C261.061 92.2033 261.99 91.718 263.203 91.718C264.417 91.718 265.345 92.2033 265.989 93.174C266.531 93.9767 266.801 95.0733 266.801 96.464C266.801 97.8547 266.531 98.9513 265.989 99.754C265.345 100.725 264.417 101.21 263.203 101.21C261.99 101.21 261.061 100.725 260.417 99.754Z" fill="#040415"/>
<path d="M161.007 101H159.663V94.602H157.465V93.636C158.081 93.6267 158.599 93.468 159.019 93.16C159.439 92.8427 159.701 92.432 159.803 91.928H161.007V101ZM165.971 95.792C166.456 95.7827 166.857 95.6427 167.175 95.372C167.492 95.1013 167.651 94.7467 167.651 94.308C167.651 93.8973 167.497 93.552 167.189 93.272C166.881 92.992 166.475 92.852 165.971 92.852C165.467 92.852 165.061 92.992 164.753 93.272C164.445 93.552 164.291 93.8973 164.291 94.308C164.291 94.7467 164.449 95.1013 164.767 95.372C165.084 95.6427 165.485 95.7827 165.971 95.792ZM164.571 99.586C164.916 99.8753 165.383 100.02 165.971 100.02C166.559 100.02 167.021 99.8753 167.357 99.586C167.702 99.2967 167.875 98.9327 167.875 98.494C167.875 98.046 167.702 97.6773 167.357 97.388C167.021 97.0893 166.559 96.94 165.971 96.94C165.383 96.94 164.916 97.0893 164.571 97.388C164.235 97.6773 164.067 98.046 164.067 98.494C164.067 98.9327 164.235 99.2967 164.571 99.586ZM168.379 100.482C167.791 100.967 166.988 101.21 165.971 101.21C164.953 101.21 164.151 100.967 163.563 100.482C162.975 99.9873 162.681 99.362 162.681 98.606C162.681 98.074 162.839 97.612 163.157 97.22C163.483 96.8187 163.899 96.534 164.403 96.366C163.973 96.2073 163.619 95.9367 163.339 95.554C163.059 95.162 162.919 94.7233 162.919 94.238C162.919 93.5007 163.208 92.8987 163.787 92.432C164.365 91.956 165.093 91.718 165.971 91.718C166.848 91.718 167.576 91.956 168.155 92.432C168.733 92.8987 169.023 93.5007 169.023 94.238C169.023 94.714 168.883 95.148 168.603 95.54C168.323 95.932 167.968 96.2073 167.539 96.366C168.043 96.5247 168.453 96.8047 168.771 97.206C169.097 97.6073 169.261 98.074 169.261 98.606C169.261 99.362 168.967 99.9873 168.379 100.482Z" fill="#040415"/>
<path d="M303.233 95.19L301.861 95.022C301.851 94.938 301.847 94.8167 301.847 94.658C301.847 93.846 302.131 93.1553 302.701 92.586C303.27 92.0073 304.031 91.718 304.983 91.718C305.925 91.718 306.672 91.9887 307.223 92.53C307.773 93.062 308.049 93.72 308.049 94.504C308.049 95.652 307.479 96.5853 306.341 97.304L304.549 98.452C303.905 98.8627 303.536 99.2873 303.443 99.726H308.105V101H301.749C301.767 100.235 301.94 99.5627 302.267 98.984C302.603 98.4053 303.149 97.8733 303.905 97.388L305.417 96.408C306.247 95.876 306.663 95.246 306.663 94.518C306.663 94.07 306.513 93.692 306.215 93.384C305.916 93.076 305.496 92.922 304.955 92.922C304.385 92.922 303.951 93.0947 303.653 93.44C303.354 93.7853 303.205 94.2333 303.205 94.784C303.205 94.868 303.214 95.0033 303.233 95.19ZM312.698 101H311.354V94.602H309.156V93.636C309.772 93.6267 310.29 93.468 310.71 93.16C311.13 92.8427 311.391 92.432 311.494 91.928H312.698V101Z" fill="#040415"/>
<path d="M14.0638 137.19L12.6918 137.022C12.6825 136.938 12.6778 136.817 12.6778 136.658C12.6778 135.846 12.9625 135.155 13.5318 134.586C14.1012 134.007 14.8618 133.718 15.8138 133.718C16.7565 133.718 17.5032 133.989 18.0538 134.53C18.6045 135.062 18.8798 135.72 18.8798 136.504C18.8798 137.652 18.3105 138.585 17.1718 139.304L15.3798 140.452C14.7358 140.863 14.3672 141.287 14.2738 141.726H18.9358V143H12.5798C12.5985 142.235 12.7712 141.563 13.0978 140.984C13.4338 140.405 13.9798 139.873 14.7358 139.388L16.2478 138.408C17.0785 137.876 17.4938 137.246 17.4938 136.518C17.4938 136.07 17.3445 135.692 17.0458 135.384C16.7472 135.076 16.3272 134.922 15.7858 134.922C15.2165 134.922 14.7825 135.095 14.4838 135.44C14.1852 135.785 14.0358 136.233 14.0358 136.784C14.0358 136.868 14.0452 137.003 14.0638 137.19ZM21.474 137.19L20.102 137.022C20.0927 136.938 20.088 136.817 20.088 136.658C20.088 135.846 20.3727 135.155 20.942 134.586C21.5113 134.007 22.272 133.718 23.224 133.718C24.1667 133.718 24.9133 133.989 25.464 134.53C26.0147 135.062 26.29 135.72 26.29 136.504C26.29 137.652 25.7207 138.585 24.582 139.304L22.79 140.452C22.146 140.863 21.7773 141.287 21.684 141.726H26.346V143H19.99C20.0087 142.235 20.1813 141.563 20.508 140.984C20.844 140.405 21.39 139.873 22.146 139.388L23.658 138.408C24.4887 137.876 24.904 137.246 24.904 136.518C24.904 136.07 24.7547 135.692 24.456 135.384C24.1573 135.076 23.7373 134.922 23.196 134.922C22.6267 134.922 22.1927 135.095 21.894 135.44C21.5953 135.785 21.446 136.233 21.446 136.784C21.446 136.868 21.4553 137.003 21.474 137.19Z" fill="#040415"/>
<path d="M61.8998 137.19L60.5278 137.022C60.5184 136.938 60.5138 136.817 60.5138 136.658C60.5138 135.846 60.7984 135.155 61.3678 134.586C61.9371 134.007 62.6978 133.718 63.6498 133.718C64.5924 133.718 65.3391 133.989 65.8898 134.53C66.4404 135.062 66.7158 135.72 66.7158 136.504C66.7158 137.652 66.1464 138.585 65.0078 139.304L63.2158 140.452C62.5718 140.863 62.2031 141.287 62.1098 141.726H66.7718V143H60.4158C60.4344 142.235 60.6071 141.563 60.9338 140.984C61.2698 140.405 61.8158 139.873 62.5718 139.388L64.0838 138.408C64.9144 137.876 65.3298 137.246 65.3298 136.518C65.3298 136.07 65.1804 135.692 64.8818 135.384C64.5831 135.076 64.1631 134.922 63.6218 134.922C63.0524 134.922 62.6184 135.095 62.3198 135.44C62.0211 135.785 61.8718 136.233 61.8718 136.784C61.8718 136.868 61.8811 137.003 61.8998 137.19ZM70.4859 138.786L69.8139 137.652L72.4879 135.188H68.1479V133.928H74.3079V135.16L71.7179 137.554C72.4553 137.554 73.1039 137.797 73.6639 138.282C74.2333 138.767 74.5179 139.444 74.5179 140.312C74.5179 141.115 74.2239 141.801 73.6359 142.37C73.0479 142.939 72.2453 143.224 71.2279 143.224C70.2293 143.224 69.4266 142.949 68.8199 142.398C68.2226 141.838 67.9006 141.161 67.8539 140.368L69.1979 140.06C69.2259 140.648 69.4266 141.124 69.7999 141.488C70.1826 141.843 70.6539 142.02 71.2139 142.02C71.8113 142.02 72.2779 141.861 72.6139 141.544C72.9593 141.217 73.1319 140.816 73.1319 140.34C73.1319 139.789 72.9499 139.369 72.5859 139.08C72.2219 138.791 71.7879 138.646 71.2839 138.646C71.0133 138.646 70.7473 138.693 70.4859 138.786Z" fill="#040415"/>
<path d="M109.852 137.19L108.48 137.022C108.471 136.938 108.466 136.817 108.466 136.658C108.466 135.846 108.751 135.155 109.32 134.586C109.889 134.007 110.65 133.718 111.602 133.718C112.545 133.718 113.291 133.989 113.842 134.53C114.393 135.062 114.668 135.72 114.668 136.504C114.668 137.652 114.099 138.585 112.96 139.304L111.168 140.452C110.524 140.863 110.155 141.287 110.062 141.726H114.724V143H108.368C108.387 142.235 108.559 141.563 108.886 140.984C109.222 140.405 109.768 139.873 110.524 139.388L112.036 138.408C112.867 137.876 113.282 137.246 113.282 136.518C113.282 136.07 113.133 135.692 112.834 135.384C112.535 135.076 112.115 134.922 111.574 134.922C111.005 134.922 110.571 135.095 110.272 135.44C109.973 135.785 109.824 136.233 109.824 136.784C109.824 136.868 109.833 137.003 109.852 137.19ZM115.573 140.956V139.374L119.465 133.928H121.355V139.682H122.909V140.956H121.355V143H120.025V140.956H115.573ZM120.025 139.682V135.244L116.833 139.682H120.025Z" fill="#040415"/>
<path d="M157.934 137.19L156.562 137.022C156.553 136.938 156.548 136.817 156.548 136.658C156.548 135.846 156.833 135.155 157.402 134.586C157.971 134.007 158.732 133.718 159.684 133.718C160.627 133.718 161.373 133.989 161.924 134.53C162.475 135.062 162.75 135.72 162.75 136.504C162.75 137.652 162.181 138.585 161.042 139.304L159.25 140.452C158.606 140.863 158.237 141.287 158.144 141.726H162.806V143H156.45C156.469 142.235 156.641 141.563 156.968 140.984C157.304 140.405 157.85 139.873 158.606 139.388L160.118 138.408C160.949 137.876 161.364 137.246 161.364 136.518C161.364 136.07 161.215 135.692 160.916 135.384C160.617 135.076 160.197 134.922 159.656 134.922C159.087 134.922 158.653 135.095 158.354 135.44C158.055 135.785 157.906 136.233 157.906 136.784C157.906 136.868 157.915 137.003 157.934 137.19ZM163.86 140.536L165.176 140.144C165.213 140.704 165.419 141.157 165.792 141.502C166.175 141.847 166.651 142.02 167.22 142.02C167.771 142.02 168.233 141.852 168.606 141.516C168.979 141.18 169.166 140.737 169.166 140.186C169.166 139.589 168.979 139.127 168.606 138.8C168.233 138.473 167.766 138.31 167.206 138.31C166.525 138.31 165.974 138.529 165.554 138.968C165.423 138.921 165.209 138.837 164.91 138.716C164.611 138.595 164.378 138.501 164.21 138.436L165.386 133.928H170.174V135.188H166.296L165.624 137.792C166.025 137.344 166.641 137.12 167.472 137.12C168.377 137.12 169.115 137.391 169.684 137.932C170.263 138.473 170.552 139.206 170.552 140.13C170.552 141.007 170.244 141.745 169.628 142.342C169.012 142.93 168.209 143.224 167.22 143.224C166.287 143.224 165.507 142.963 164.882 142.44C164.266 141.917 163.925 141.283 163.86 140.536Z" fill="#040415"/>
<path d="M205.708 137.19L204.336 137.022C204.327 136.938 204.322 136.817 204.322 136.658C204.322 135.846 204.607 135.155 205.176 134.586C205.746 134.007 206.506 133.718 207.458 133.718C208.401 133.718 209.148 133.989 209.698 134.53C210.249 135.062 210.524 135.72 210.524 136.504C210.524 137.652 209.955 138.585 208.816 139.304L207.024 140.452C206.38 140.863 206.012 141.287 205.918 141.726H210.58V143H204.224C204.243 142.235 204.416 141.563 204.742 140.984C205.078 140.405 205.624 139.873 206.38 139.388L207.892 138.408C208.723 137.876 209.138 137.246 209.138 136.518C209.138 136.07 208.989 135.692 208.69 135.384C208.392 135.076 207.972 134.922 207.43 134.922C206.861 134.922 206.427 135.095 206.128 135.44C205.83 135.785 205.68 136.233 205.68 136.784C205.68 136.868 205.69 137.003 205.708 137.19ZM218.495 134.222L218.075 135.342C217.627 135.081 217.085 134.95 216.451 134.95C215.527 134.95 214.775 135.253 214.197 135.86C213.627 136.467 213.315 137.246 213.259 138.198C213.464 137.862 213.772 137.582 214.183 137.358C214.603 137.134 215.093 137.022 215.653 137.022C216.577 137.022 217.323 137.297 217.893 137.848C218.471 138.399 218.761 139.155 218.761 140.116C218.761 141.059 218.434 141.81 217.781 142.37C217.127 142.93 216.334 143.21 215.401 143.21C214.43 143.21 213.595 142.86 212.895 142.16C212.204 141.451 211.859 140.401 211.859 139.01C211.859 137.367 212.297 136.075 213.175 135.132C214.052 134.189 215.172 133.718 216.535 133.718C217.365 133.718 218.019 133.886 218.495 134.222ZM213.455 140.116C213.455 140.685 213.651 141.147 214.043 141.502C214.435 141.847 214.892 142.02 215.415 142.02C215.965 142.02 216.427 141.847 216.801 141.502C217.183 141.157 217.375 140.695 217.375 140.116C217.375 139.528 217.183 139.061 216.801 138.716C216.427 138.371 215.965 138.198 215.415 138.198C214.864 138.198 214.397 138.371 214.015 138.716C213.641 139.061 213.455 139.528 213.455 140.116Z" fill="#040415"/>
<path d="M254.385 137.19L253.013 137.022C253.004 136.938 252.999 136.817 252.999 136.658C252.999 135.846 253.284 135.155 253.853 134.586C254.422 134.007 255.183 133.718 256.135 133.718C257.078 133.718 257.824 133.989 258.375 134.53C258.926 135.062 259.201 135.72 259.201 136.504C259.201 137.652 258.632 138.585 257.493 139.304L255.701 140.452C255.057 140.863 254.688 141.287 254.595 141.726H259.257V143H252.901C252.92 142.235 253.092 141.563 253.419 140.984C253.755 140.405 254.301 139.873 255.057 139.388L256.569 138.408C257.4 137.876 257.815 137.246 257.815 136.518C257.815 136.07 257.666 135.692 257.367 135.384C257.068 135.076 256.648 134.922 256.107 134.922C255.538 134.922 255.104 135.095 254.805 135.44C254.506 135.785 254.357 136.233 254.357 136.784C254.357 136.868 254.366 137.003 254.385 137.19ZM266.513 133.928V135.244C266.28 135.431 266.051 135.631 265.827 135.846C265.603 136.061 265.305 136.406 264.931 136.882C264.567 137.358 264.245 137.862 263.965 138.394C263.685 138.926 263.419 139.603 263.167 140.424C262.925 141.236 262.761 142.095 262.677 143H261.263C261.319 142.281 261.431 141.586 261.599 140.914C261.767 140.233 261.963 139.64 262.187 139.136C262.411 138.632 262.649 138.161 262.901 137.722C263.163 137.274 263.415 136.901 263.657 136.602C263.909 136.294 264.133 136.033 264.329 135.818C264.535 135.603 264.698 135.445 264.819 135.342L265.001 135.188H259.891V133.928H266.513Z" fill="#040415"/>
<path d="M301.852 137.19L300.48 137.022C300.471 136.938 300.466 136.817 300.466 136.658C300.466 135.846 300.751 135.155 301.32 134.586C301.889 134.007 302.65 133.718 303.602 133.718C304.545 133.718 305.291 133.989 305.842 134.53C306.393 135.062 306.668 135.72 306.668 136.504C306.668 137.652 306.099 138.585 304.96 139.304L303.168 140.452C302.524 140.863 302.155 141.287 302.062 141.726H306.724V143H300.368C300.387 142.235 300.559 141.563 300.886 140.984C301.222 140.405 301.768 139.873 302.524 139.388L304.036 138.408C304.867 137.876 305.282 137.246 305.282 136.518C305.282 136.07 305.133 135.692 304.834 135.384C304.535 135.076 304.115 134.922 303.574 134.922C303.005 134.922 302.571 135.095 302.272 135.44C301.973 135.785 301.824 136.233 301.824 136.784C301.824 136.868 301.833 137.003 301.852 137.19ZM311.208 137.792C311.693 137.783 312.095 137.643 312.412 137.372C312.729 137.101 312.888 136.747 312.888 136.308C312.888 135.897 312.734 135.552 312.426 135.272C312.118 134.992 311.712 134.852 311.208 134.852C310.704 134.852 310.298 134.992 309.99 135.272C309.682 135.552 309.528 135.897 309.528 136.308C309.528 136.747 309.687 137.101 310.004 137.372C310.321 137.643 310.723 137.783 311.208 137.792ZM309.808 141.586C310.153 141.875 310.62 142.02 311.208 142.02C311.796 142.02 312.258 141.875 312.594 141.586C312.939 141.297 313.112 140.933 313.112 140.494C313.112 140.046 312.939 139.677 312.594 139.388C312.258 139.089 311.796 138.94 311.208 138.94C310.62 138.94 310.153 139.089 309.808 139.388C309.472 139.677 309.304 140.046 309.304 140.494C309.304 140.933 309.472 141.297 309.808 141.586ZM313.616 142.482C313.028 142.967 312.225 143.21 311.208 143.21C310.191 143.21 309.388 142.967 308.8 142.482C308.212 141.987 307.918 141.362 307.918 140.606C307.918 140.074 308.077 139.612 308.394 139.22C308.721 138.819 309.136 138.534 309.64 138.366C309.211 138.207 308.856 137.937 308.576 137.554C308.296 137.162 308.156 136.723 308.156 136.238C308.156 135.501 308.445 134.899 309.024 134.432C309.603 133.956 310.331 133.718 311.208 133.718C312.085 133.718 312.813 133.956 313.392 134.432C313.971 134.899 314.26 135.501 314.26 136.238C314.26 136.714 314.12 137.148 313.84 137.54C313.56 137.932 313.205 138.207 312.776 138.366C313.28 138.525 313.691 138.805 314.008 139.206C314.335 139.607 314.498 140.074 314.498 140.606C314.498 141.362 314.204 141.987 313.616 142.482Z" fill="#040415"/>
<path d="M13.7015 179.19L12.3295 179.022C12.3202 178.938 12.3155 178.817 12.3155 178.658C12.3155 177.846 12.6002 177.155 13.1695 176.586C13.7389 176.007 14.4995 175.718 15.4515 175.718C16.3942 175.718 17.1409 175.989 17.6915 176.53C18.2422 177.062 18.5175 177.72 18.5175 178.504C18.5175 179.652 17.9482 180.585 16.8095 181.304L15.0175 182.452C14.3735 182.863 14.0049 183.287 13.9115 183.726H18.5735V185H12.2175C12.2362 184.235 12.4089 183.563 12.7355 182.984C13.0715 182.405 13.6175 181.873 14.3735 181.388L15.8855 180.408C16.7162 179.876 17.1315 179.246 17.1315 178.518C17.1315 178.07 16.9822 177.692 16.6835 177.384C16.3849 177.076 15.9649 176.922 15.4235 176.922C14.8542 176.922 14.4202 177.095 14.1215 177.44C13.8229 177.785 13.6735 178.233 13.6735 178.784C13.6735 178.868 13.6829 179.003 13.7015 179.19ZM19.9357 184.678L20.3837 183.544C20.8597 183.833 21.4104 183.978 22.0357 183.978C23.0717 183.978 23.8464 183.684 24.3597 183.096C24.8824 182.499 25.1577 181.719 25.1857 180.758C25.0084 181.085 24.7144 181.36 24.3037 181.584C23.9024 181.808 23.4124 181.92 22.8337 181.92C21.9937 181.92 21.261 181.649 20.6357 181.108C20.0104 180.557 19.6977 179.806 19.6977 178.854C19.6977 177.939 20.0244 177.188 20.6777 176.6C21.3404 176.012 22.129 175.718 23.0437 175.718C24.0144 175.718 24.845 176.073 25.5357 176.782C26.2264 177.491 26.5717 178.527 26.5717 179.89C26.5717 181.589 26.189 182.9 25.4237 183.824C24.6677 184.748 23.5384 185.21 22.0357 185.21C21.681 185.21 21.2984 185.159 20.8877 185.056C20.477 184.953 20.1597 184.827 19.9357 184.678ZM25.0037 178.826C25.0037 178.266 24.8077 177.809 24.4157 177.454C24.0237 177.099 23.5664 176.922 23.0437 176.922C22.5117 176.922 22.0497 177.099 21.6577 177.454C21.275 177.799 21.0837 178.257 21.0837 178.826C21.0837 179.414 21.275 179.881 21.6577 180.226C22.0404 180.571 22.5024 180.744 23.0437 180.744C23.5757 180.744 24.033 180.571 24.4157 180.226C24.8077 179.871 25.0037 179.405 25.0037 178.826Z" fill="#040415"/>
<path d="M62.4811 180.786L61.8091 179.652L64.4831 177.188H60.1431V175.928H66.3031V177.16L63.7131 179.554C64.4504 179.554 65.0991 179.797 65.6591 180.282C66.2284 180.767 66.5131 181.444 66.5131 182.312C66.5131 183.115 66.2191 183.801 65.6311 184.37C65.0431 184.939 64.2404 185.224 63.2231 185.224C62.2244 185.224 61.4217 184.949 60.8151 184.398C60.2177 183.838 59.8957 183.161 59.8491 182.368L61.1931 182.06C61.2211 182.648 61.4217 183.124 61.7951 183.488C62.1777 183.843 62.6491 184.02 63.2091 184.02C63.8064 184.02 64.2731 183.861 64.6091 183.544C64.9544 183.217 65.1271 182.816 65.1271 182.34C65.1271 181.789 64.9451 181.369 64.5811 181.08C64.2171 180.791 63.7831 180.646 63.2791 180.646C63.0084 180.646 62.7424 180.693 62.4811 180.786ZM69.9253 177.524C69.3933 178.084 69.1273 179.064 69.1273 180.464C69.1273 181.864 69.3933 182.844 69.9253 183.404C70.2987 183.796 70.7793 183.992 71.3673 183.992C71.9553 183.992 72.436 183.796 72.8093 183.404C73.3413 182.844 73.6073 181.864 73.6073 180.464C73.6073 179.064 73.3413 178.084 72.8093 177.524C72.436 177.132 71.9553 176.936 71.3673 176.936C70.7793 176.936 70.2987 177.132 69.9253 177.524ZM68.5813 183.754C68.04 182.951 67.7693 181.855 67.7693 180.464C67.7693 179.073 68.04 177.977 68.5813 177.174C69.2253 176.203 70.154 175.718 71.3673 175.718C72.5807 175.718 73.5093 176.203 74.1533 177.174C74.6947 177.977 74.9653 179.073 74.9653 180.464C74.9653 181.855 74.6947 182.951 74.1533 183.754C73.5093 184.725 72.5807 185.21 71.3673 185.21C70.154 185.21 69.2253 184.725 68.5813 183.754Z" fill="#040415"/>
<path d="M112.347 180.786L111.675 179.652L114.349 177.188H110.009V175.928H116.169V177.16L113.579 179.554C114.317 179.554 114.965 179.797 115.525 180.282C116.095 180.767 116.379 181.444 116.379 182.312C116.379 183.115 116.085 183.801 115.497 184.37C114.909 184.939 114.107 185.224 113.089 185.224C112.091 185.224 111.288 184.949 110.681 184.398C110.084 183.838 109.762 183.161 109.715 182.368L111.059 182.06C111.087 182.648 111.288 183.124 111.661 183.488C112.044 183.843 112.515 184.02 113.075 184.02C113.673 184.02 114.139 183.861 114.475 183.544C114.821 183.217 114.993 182.816 114.993 182.34C114.993 181.789 114.811 181.369 114.447 181.08C114.083 180.791 113.649 180.646 113.145 180.646C112.875 180.646 112.609 180.693 112.347 180.786ZM120.759 185H119.415V178.602H117.217V177.636C117.833 177.627 118.351 177.468 118.771 177.16C119.191 176.843 119.453 176.432 119.555 175.928H120.759V185Z" fill="#040415"/>
</svg>
