<svg width="26" height="24" viewBox="0 0 26 24" fill="none" xmlns="http://www.w3.org/2000/svg">
<path opacity="0.6" fill-rule="evenodd" clip-rule="evenodd" d="M6.98458 4.98633C6.43306 4.99495 5.99265 5.44847 6.0002 6V11.832C5.98235 11.94 5.98235 12.0502 6.0002 12.1582V18C5.9951 18.3606 6.18458 18.6961 6.49608 18.8779C6.80757 19.0597 7.19283 19.0597 7.50433 18.8779C7.81583 18.6961 8.0053 18.3606 8.0002 18V13H18.0002V18C17.9951 18.3606 18.1846 18.6961 18.4961 18.8779C18.8076 19.0597 19.1928 19.0597 19.5043 18.8779C19.8158 18.6961 20.0053 18.3606 20.0002 18V12.168C20.0181 12.06 20.0181 11.9498 20.0002 11.8418V6C20.0039 5.7297 19.898 5.46941 19.7067 5.27845C19.5154 5.08748 19.2549 4.98211 18.9846 4.98633C18.4331 4.99495 17.9927 5.44847 18.0002 6V11H8.0002V6C8.0039 5.7297 7.89803 5.46941 7.70669 5.27845C7.51536 5.08748 7.25487 4.98211 6.98458 4.98633Z" fill="white"/>
<path fill-rule="evenodd" clip-rule="evenodd" d="M3.98446 6.98633C3.43294 6.99495 2.99253 7.44847 3.00008 8V11H2.00008C1.63945 10.9949 1.304 11.1844 1.12219 11.4959C0.940388 11.8074 0.940388 12.1926 1.12219 12.5041C1.304 12.8156 1.63945 13.0051 2.00008 13H3.00008V16C2.99498 16.3606 3.18446 16.6961 3.49596 16.8779C3.80745 17.0597 4.19271 17.0597 4.50421 16.8779C4.81571 16.6961 5.00518 16.3606 5.00008 16V12.168C5.01793 12.06 5.01793 11.9498 5.00008 11.8418V8C5.00378 7.7297 4.89791 7.46941 4.70657 7.27845C4.51524 7.08748 4.25475 6.98211 3.98446 6.98633ZM21.9845 6.98633C21.4329 6.99495 20.9925 7.44847 21.0001 8V11.832C20.9822 11.94 20.9822 12.0502 21.0001 12.1582V16C20.995 16.3606 21.1845 16.6961 21.496 16.8779C21.8075 17.0597 22.1927 17.0597 22.5042 16.8779C22.8157 16.6961 23.0052 16.3606 23.0001 16V13H24.0001C24.3607 13.0051 24.6962 12.8156 24.878 12.5041C25.0598 12.1926 25.0598 11.8074 24.878 11.4959C24.6962 11.1844 24.3607 10.9949 24.0001 11H23.0001V8C23.0038 7.7297 22.8979 7.46941 22.7066 7.27845C22.5152 7.08748 22.2548 6.98211 21.9845 6.98633Z" fill="white"/>
</svg>
