<svg width="24" height="24" viewBox="0 0 24 24" fill="none" xmlns="http://www.w3.org/2000/svg">
<path fill-rule="evenodd" clip-rule="evenodd" d="M21 6H10.8293C10.4175 4.83481 9.30621 4 8 4C6.69379 4 5.58254 4.83481 5.17071 6H3C2.44772 6 2 6.44772 2 7C2 7.55228 2.44772 8 3 8H5.17071C5.58254 9.16519 6.69379 10 8 10C9.30621 10 10.4175 9.16519 10.8293 8H21C21.5523 8 22 7.55228 22 7C22 6.44772 21.5523 6 21 6ZM8 8C7.44772 8 7 7.55228 7 7C7 6.44772 7.44772 6 8 6C8.55228 6 9 6.44772 9 7C9 7.55228 8.55228 8 8 8ZM2 17C2 16.4477 2.44772 16 3 16H13.1707C13.5825 14.8348 14.6937 14 16 14C17.3063 14 18.4175 14.8348 18.8293 16H21C21.5523 16 22 16.4477 22 17C22 17.5523 21.5523 18 21 18H18.8293C18.4175 19.1652 17.3063 20 16 20C14.6937 20 13.5825 19.1652 13.1707 18H3C2.44772 18 2 17.5523 2 17ZM17 17C17 16.4477 16.5523 16 16 16C15.4477 16 15 16.4477 15 17C15 17.5523 15.4477 18 16 18C16.5523 18 17 17.5523 17 17Z" fill="#040415" fill-opacity="0.4"/>
</svg>
