<svg width="18" height="16" viewBox="0 0 18 16" fill="none" xmlns="http://www.w3.org/2000/svg">
<path fill-rule="evenodd" clip-rule="evenodd" d="M1.44743 5.89443C0.953451 6.14142 0.352781 5.94119 0.105791 5.44721C-0.141199 4.95324 0.0590314 4.35256 0.553001 4.10557L2.54836 3.10789C2.55185 3.10612 2.55536 3.10437 2.55887 3.10264L8.55302 0.10557C8.83452 -0.03519 9.16592 -0.03519 9.44742 0.10557L15.4402 3.10196C15.4446 3.10414 15.4491 3.10635 15.4535 3.10859L17.4474 4.10557C17.9414 4.35256 18.1416 4.95324 17.8946 5.44721C17.6476 5.94119 17.047 6.14142 16.553 5.89443L16.0002 5.61803V9.24152C16.0002 10.0465 16.0002 11.7108 15.956 12.252C15.9101 12.8141 15.8115 13.3308 15.5642 13.8162C15.1807 14.5688 14.5688 15.1807 13.8162 15.5642C13.3308 15.8115 12.8141 15.9101 12.252 15.956C11.7108 16.0002 11.0465 16.0002 10.2415 16.0002H7.75892C6.95396 16.0002 6.2896 16.0002 5.74839 15.956C5.1863 15.9101 4.66959 15.8115 4.18426 15.5642C3.43161 15.1807 2.81969 14.5688 2.43619 13.8162C2.1889 13.3308 2.09034 12.8141 2.04441 12.252C2.0002 11.7108 2.00021 10.0465 2.00022 9.24152V5.61804L1.44743 5.89443ZM4.00022 4.61804V9.20022C4.00022 10.0568 4.001 11.6391 4.03777 12.0892C4.07359 12.5276 4.13852 12.7518 4.21821 12.9082C4.40995 13.2845 4.71592 13.5905 5.09224 13.7822C5.24864 13.8619 5.47284 13.9268 5.91126 13.9626C6.36135 13.9994 6.94364 14.0002 7.80022 14.0002H10.2002C11.0568 14.0002 11.6391 13.9994 12.0892 13.9626C12.5276 13.9268 12.7518 13.8619 12.9082 13.7822C13.2845 13.5905 13.5905 13.2845 13.7822 12.9082C13.8619 12.7518 13.9268 12.5276 13.9626 12.0892C13.9994 11.6391 14.0002 10.0568 14.0002 9.20022V4.61803L9.00022 2.11804L4.00022 4.61804Z" fill="#040415" fill-opacity="0.2"/>
</svg>
