<svg width="60" height="105" viewBox="0 0 60 105" fill="none" xmlns="http://www.w3.org/2000/svg">
<mask id="mask0_202_11082" style="mask-type:luminance" maskUnits="userSpaceOnUse" x="0" y="0" width="60" height="105">
<rect width="60" height="105" fill="white"/>
</mask>
<g mask="url(#mask0_202_11082)">
<path fill-rule="evenodd" clip-rule="evenodd" d="M30 45C26.134 45 23 48.134 23 52C23 54.2061 24.3361 56.268 26.2049 57.8876L29.6463 60.8702C29.8493 61.0461 30.1507 61.0461 30.3537 60.8702L33.7951 57.8876C35.6639 56.268 37 54.2061 37 52C37 48.134 33.866 45 30 45ZM21 52C21 47.0294 25.0294 43 30 43C34.9706 43 39 47.0294 39 52C39 55.0264 37.1902 57.5918 35.1049 59.399L31.6635 62.3816C30.7088 63.209 29.2912 63.209 28.3365 62.3816L24.8951 59.399C22.8098 57.5918 21 55.0264 21 52Z" fill="#040415" fill-opacity="0.2"/>
<path opacity="0.6" fill-rule="evenodd" clip-rule="evenodd" d="M32 52C32 53.1046 31.1046 54 30 54C28.8954 54 28 53.1046 28 52C28 50.8954 28.8954 50 30 50C31.1046 50 32 50.8954 32 52Z" fill="#040415" fill-opacity="0.2"/>
</g>
</svg>
