<svg width="24" height="24" viewBox="0 0 24 24" fill="none" xmlns="http://www.w3.org/2000/svg">
<path fill-rule="evenodd" clip-rule="evenodd" d="M5 12C5 11.4478 4.5523 11 4 11C3.4477 11 3 11.4478 3 12V15.2413C3 16.0463 3 16.7107 3.0442 17.2519C3.0901 17.814 3.1887 18.3307 3.436 18.816C3.8195 19.5686 4.4314 20.1806 5.184 20.5641C5.6694 20.8114 6.1861 20.9099 6.7482 20.9558C7.2894 21.0001 7.9537 21.0001 8.7587 21H15.2413C16.0463 21.0001 16.7106 21.0001 17.2518 20.9558C17.8139 20.9099 18.3306 20.8114 18.816 20.5641C19.5686 20.1806 20.1805 19.5686 20.564 18.816C20.8113 18.3307 20.9099 17.814 20.9558 17.2519C21 16.7107 21 16.0463 21 15.2415V15.2414V12C21 11.4478 20.5523 11 20 11C19.4477 11 19 11.4478 19 12V15.2C19 16.0566 18.9992 16.6389 18.9625 17.089C18.9266 17.5274 18.8617 17.7516 18.782 17.908C18.5903 18.2843 18.2843 18.5903 17.908 18.7821C17.7516 18.8617 17.5274 18.9267 17.089 18.9625C16.6389 18.9993 16.0566 19 15.2 19H8.8C7.9434 19 7.3611 18.9993 6.911 18.9625C6.4726 18.9267 6.2484 18.8617 6.092 18.7821C5.7157 18.5903 5.4097 18.2843 5.218 17.908C5.1383 17.7516 5.0734 17.5274 5.0376 17.089C5.0008 16.6389 5 16.0566 5 15.2V12ZM12 15.9999C12.5523 15.9999 13 15.5522 13 14.9999L13 6.4141L14.2929 7.707C14.6834 8.0975 15.3166 8.0975 15.7071 7.707C16.0976 7.3165 16.0976 6.6833 15.7071 6.2928L12.7071 3.2928C12.3166 2.9023 11.6834 2.9023 11.2929 3.2928L8.29289 6.2928C7.90237 6.6833 7.90237 7.3165 8.29289 7.707C8.68342 8.0975 9.31658 8.0975 9.70711 7.707L11 6.4141L11 14.9999C11 15.5522 11.4477 15.9999 12 15.9999Z" fill="#040415" fill-opacity="0.4"/>
</svg>
