<svg width="158" height="196" viewBox="0 0 158 196" fill="none" xmlns="http://www.w3.org/2000/svg">
<g opacity="0.2">
<path fill-rule="evenodd" clip-rule="evenodd" d="M1 27L11.322 32.161C14.5545 33.7772 18.4853 32.7045 20.4487 29.6702C23.5949 24.8079 30.9272 25.562 33.0179 30.9629L35.3889 37.088C37.7721 43.2445 45.1982 45.6732 50.7586 42.1145L51.2823 41.7793C57.8333 37.5867 66.5447 41.3674 67.9568 49.0159L68.5703 52.3393C70.9872 65.4304 89.0507 67.1502 93.8944 54.7503L97.6441 45.1511C100.232 38.5268 106.846 34.3727 113.936 34.9182L119.78 35.3677C124.685 35.745 129.279 32.9312 131.171 28.3899C135.237 18.6307 149.248 19.1917 152.522 29.2448L157 43V172C157 185.255 146.255 196 133 196H25C11.7452 196 1 185.255 1 172V27Z" fill="url(#paint0_linear_202_11302)"/>
</g>
<path d="M1 27L11.322 32.161C14.5545 33.7772 18.4853 32.7045 20.4487 29.6702V29.6702C23.5949 24.8079 30.9272 25.562 33.0179 30.9629L35.3889 37.088C37.7721 43.2445 45.1982 45.6732 50.7586 42.1145L51.2823 41.7793C57.8333 37.5867 66.5447 41.3674 67.9568 49.0159L68.5703 52.3393C70.9872 65.4304 89.0507 67.1502 93.8944 54.7503L97.6441 45.1511C100.232 38.5268 106.846 34.3727 113.936 34.9182L119.78 35.3677C124.685 35.745 129.279 32.9312 131.171 28.3899V28.3899C135.237 18.6307 149.248 19.1917 152.522 29.2448L157 43" stroke="#FF6079" stroke-width="3" stroke-linecap="round"/>
<defs>
<linearGradient id="paint0_linear_202_11302" x1="74" y1="-1.87618e-06" x2="116.856" y2="186.133" gradientUnits="userSpaceOnUse">
<stop stop-color="#FF6079"/>
<stop offset="1" stop-color="#FF6079" stop-opacity="0"/>
</linearGradient>
</defs>
</svg>
