<svg width="22" height="21" viewBox="0 0 22 21" fill="none" xmlns="http://www.w3.org/2000/svg">
<path fill-rule="evenodd" clip-rule="evenodd" d="M6.4 1.7L7.26798 1.04902C8.28553 0.285854 9.67375 0.247322 10.7321 0.952872L14.547 3.49616C15.0398 3.82469 15.6188 4.00001 16.2111 4.00001H18C20.2091 4.00001 22 5.79087 22 8V8.5C22 10.9853 19.9853 13 17.5 13H5C2.23858 13 0 10.7614 0 8V3.00001C0 1.89544 0.89543 1 2 1C2.43274 1 2.85381 1.14036 3.2 1.4L3.6 1.7C4.42963 2.32223 5.57037 2.32223 6.4 1.7ZM13.4376 5.16026L9.62268 2.61697C9.2699 2.38179 8.80716 2.39463 8.46798 2.64902L7.6 3.3C6.05926 4.45556 3.94074 4.45556 2.4 3.3L2 3V8C2 9.65686 3.34315 11 5 11H17.5C18.8807 11 20 9.88072 20 8.5V8C20 6.89544 19.1046 6 18 6H16.2111C15.224 6 14.2589 5.70781 13.4376 5.16026ZM3 16C3 15.4477 3.44772 15 4 15H18C18.5523 15 19 15.4477 19 16C19 16.5523 18.5523 17 18 17H4C3.44772 17 3 16.5523 3 16ZM4 19C3.44772 19 3 19.4477 3 20C3 20.5523 3.44772 21 4 21H10C10.5523 21 11 20.5523 11 20C11 19.4477 10.5523 19 10 19H4Z" fill="#FF6079"/>
</svg>
