<svg width="24" height="24" viewBox="0 0 24 24" fill="none" xmlns="http://www.w3.org/2000/svg">
<path fill-rule="evenodd" clip-rule="evenodd" d="M7.4 2.7L8.26798 2.04902C9.28553 1.28585 10.6738 1.24732 11.7321 1.95287L15.547 4.49616C16.0398 4.82469 16.6188 5.00001 17.2111 5.00001H19C21.2091 5.00001 23 6.79087 23 9V9.5C23 11.9853 20.9853 14 18.5 14H6C3.23858 14 1 11.7614 1 9V4.00001C1 2.89544 1.89543 2 3 2C3.43274 2 3.85381 2.14036 4.2 2.4L4.6 2.7C5.42963 3.32223 6.57037 3.32223 7.4 2.7ZM14.4376 6.16026L10.6227 3.61697C10.2699 3.38179 9.80716 3.39463 9.46798 3.64902L8.6 4.3C7.05926 5.45556 4.94074 5.45556 3.4 4.3L3 4V9C3 10.6569 4.34315 12 6 12H18.5C19.8807 12 21 10.8807 21 9.5V9C21 7.89544 20.1046 7 19 7H17.2111C16.224 7 15.2589 6.70781 14.4376 6.16026ZM4 17C4 16.4477 4.44772 16 5 16H19C19.5523 16 20 16.4477 20 17C20 17.5523 19.5523 18 19 18H5C4.44772 18 4 17.5523 4 17ZM5 20C4.44772 20 4 20.4477 4 21C4 21.5523 4.44772 22 5 22H11C11.5523 22 12 21.5523 12 21C12 20.4477 11.5523 20 11 20H5Z" fill="#FF6079"/>
</svg>
