<svg width="36" height="36" viewBox="0 0 36 36" fill="none" xmlns="http://www.w3.org/2000/svg">
<path d="M21.9299 16.1251C22.1999 16.6651 22.9199 17.2051 23.5199 17.2951L27.105 17.8951C29.4 18.2851 29.9399 19.9351 28.2899 21.5851L25.5 24.3751C25.035 24.8401 24.7649 25.7551 24.9149 26.4151L25.71 29.8801C26.34 32.6101 24.885 33.6751 22.47 32.2501L19.1099 30.2551C18.4949 29.8951 17.505 29.8951 16.89 30.2551L13.5299 32.2501C11.1149 33.6751 9.65993 32.6101 10.2899 29.8801L11.085 26.4151C11.235 25.7701 10.9649 24.8551 10.4999 24.3751L7.70997 21.5851C6.05997 19.9351 6.59994 18.2701 8.89494 17.8951L12.48 17.2951C13.08 17.1901 13.8 16.6651 14.07 16.1251L16.05 12.1651C17.115 10.0201 18.8849 10.0201 19.9499 12.1651L21.9299 16.1251Z" fill="url(#paint0_linear_202_11128)"/>
<g opacity="0.6">
<path d="M7.875 13.5V3C7.875 2.385 8.385 1.875 9 1.875C9.615 1.875 10.125 2.385 10.125 3V13.5C10.125 14.115 9.615 14.625 9 14.625C8.385 14.625 7.875 14.115 7.875 13.5Z" fill="url(#paint1_linear_202_11128)"/>
</g>
<g opacity="0.6">
<path d="M25.875 13.5V3C25.875 2.385 26.385 1.875 27 1.875C27.615 1.875 28.125 2.385 28.125 3V13.5C28.125 14.115 27.615 14.625 27 14.625C26.385 14.625 25.875 14.115 25.875 13.5Z" fill="url(#paint2_linear_202_11128)"/>
</g>
<g opacity="0.6">
<path d="M16.875 6V3C16.875 2.385 17.385 1.875 18 1.875C18.615 1.875 19.125 2.385 19.125 3V6C19.125 6.615 18.615 7.125 18 7.125C17.385 7.125 16.875 6.615 16.875 6Z" fill="url(#paint3_linear_202_11128)"/>
</g>
<defs>
<linearGradient id="paint0_linear_202_11128" x1="-4.42066" y1="21.6466" x2="17.7592" y2="43.9932" gradientUnits="userSpaceOnUse">
<stop stop-color="white"/>
<stop offset="0.976463" stop-color="white" stop-opacity="0.8"/>
</linearGradient>
<linearGradient id="paint1_linear_202_11128" x1="6.75734" y1="8.20838" x2="11.0929" y2="8.97349" gradientUnits="userSpaceOnUse">
<stop stop-color="white"/>
<stop offset="0.976463" stop-color="white" stop-opacity="0.8"/>
</linearGradient>
<linearGradient id="paint2_linear_202_11128" x1="24.7573" y1="8.20838" x2="29.0929" y2="8.97349" gradientUnits="userSpaceOnUse">
<stop stop-color="white"/>
<stop offset="0.976463" stop-color="white" stop-opacity="0.8"/>
</linearGradient>
<linearGradient id="paint3_linear_202_11128" x1="15.7573" y1="4.48286" x2="19.5342" y2="6.10154" gradientUnits="userSpaceOnUse">
<stop stop-color="white"/>
<stop offset="0.976463" stop-color="white" stop-opacity="0.8"/>
</linearGradient>
</defs>
</svg>
